HIERARCHY
ROOT Hips
{
	OFFSET -0.001795 -0.223333 0.028219
	CHANNELS 6 Xposition Yposition Zposition Zrotation Yrotation Xrotation 
	JOINT LeftUpLeg
	{
		OFFSET 0.069520 -0.091406 -0.006815
		CHANNELS 3 Zrotation Yrotation Xrotation
		JOINT LeftLeg
		{
			OFFSET 0.034277 -0.375199 -0.004496
			CHANNELS 3 Zrotation Yrotation Xrotation
			JOINT LeftFoot
			{
				OFFSET -0.013596 -0.397961 -0.043693
				CHANNELS 3 Zrotation Yrotation Xrotation
				JOINT LeftToe
				{
					OFFSET 0.026358 -0.055791 0.119288
					CHANNELS 3 Zrotation Yrotation Xrotation
					End Site
					{
						OFFSET 0.000000 0.000000 0.000000
					}
				}
			}
		}
	}
	JOINT RightUpLeg
	{
		OFFSET -0.067670 -0.090522 -0.004320
		CHANNELS 3 Zrotation Yrotation Xrotation
		JOINT RightLeg
		{
			OFFSET -0.038290 -0.382569 -0.008850
			CHANNELS 3 Zrotation Yrotation Xrotation
			JOINT RightFoot
			{
				OFFSET 0.015774 -0.398415 -0.042312
				CHANNELS 3 Zrotation Yrotation Xrotation
				JOINT RightToe
				{
					OFFSET -0.025372 -0.048144 0.123348
					CHANNELS 3 Zrotation Yrotation Xrotation
					End Site
					{
						OFFSET 0.000000 0.000000 0.000000
					}
				}
			}
		}
	}
	JOINT Spine
	{
		OFFSET -0.002533 0.108963 -0.026696
		CHANNELS 3 Zrotation Yrotation Xrotation
		JOINT Spine1
		{
			OFFSET 0.005487 0.135180 0.001092
			CHANNELS 3 Zrotation Yrotation Xrotation
			JOINT Spine2
			{
				OFFSET 0.001457 0.052922 0.025425
				CHANNELS 3 Zrotation Yrotation Xrotation
				JOINT Neck
				{
					OFFSET -0.002778 0.213870 -0.042857
					CHANNELS 3 Zrotation Yrotation Xrotation
					JOINT Head
					{
						OFFSET 0.005152 0.064970 0.051349
						CHANNELS 3 Zrotation Yrotation Xrotation
						End Site
						{
							OFFSET 0.000000 0.000000 0.000000
						}
					}
				}
				JOINT LeftShoulder
				{
					OFFSET 0.078845 0.121749 -0.034090
					CHANNELS 3 Zrotation Yrotation Xrotation
					JOINT LeftArm
					{
						OFFSET 0.090977 0.030469 -0.008868
						CHANNELS 3 Zrotation Yrotation Xrotation
						JOINT LeftForeArm
						{
							OFFSET 0.259612 -0.012772 -0.027456
							CHANNELS 3 Zrotation Yrotation Xrotation
							JOINT LeftHand
							{
								OFFSET 0.249234 0.008986 -0.001171
								CHANNELS 3 Zrotation Yrotation Xrotation
								End Site
								{
									OFFSET 0.000000 0.000000 0.000000
								}
							}
						}
					}
				}
				JOINT RightShoulder
				{
					OFFSET -0.081759 0.118833 -0.038615
					CHANNELS 3 Zrotation Yrotation Xrotation
					JOINT RightArm
					{
						OFFSET -0.096012 0.032551 -0.009143
						CHANNELS 3 Zrotation Yrotation Xrotation
						JOINT RightForeArm
						{
							OFFSET -0.253742 -0.013329 -0.021401
							CHANNELS 3 Zrotation Yrotation Xrotation
							JOINT RightHand
							{
								OFFSET -0.255298 0.007772 -0.005559
								CHANNELS 3 Zrotation Yrotation Xrotation
								End Site
								{
									OFFSET 0.000000 0.000000 0.000000
								}
							}
						}
					}
				}
			}
		}
	}
}
MOTION
Frames: 6
Frame Time: 0.050000
-0.057726 0.922259 -0.069427 -4.273933 -13.304337 -7.786718 14.939149 0.654759 5.061582 -7.297017 1.297357 5.620289 9.515468 19.549591 7.014617 0.000000 0.000000 0.000000 -4.558250 0.054034 2.067128 7.778868 -0.624049 2.095427 -7.907101 -20.034645 10.875243 0.000000 0.000000 0.000000 -3.578775 1.324731 38.057597 7.946297 -1.615882 -24.378252 4.986008 3.159523 21.915879 -1.693781 2.593119 -37.928824 0.000000 0.000000 0.000000 -36.689449 -6.241932 3.346748 -43.737963 -19.017874 -0.757270 -9.469523 -36.267637 5.026120 0.000000 0.000000 0.000000 14.950294 18.140873 7.125757 43.821453 16.116976 -0.142292 8.286635 32.576635 3.272879 0.000000 0.000000 0.000000 
-0.063335 0.922163 -0.070226 -4.259495 -12.679112 -7.654665 14.848017 0.613923 4.926500 -7.002626 1.209880 5.352413 9.383440 19.318370 6.994536 0.000000 0.000000 0.000000 -4.189818 0.022535 2.178900 7.612328 -0.618774 1.851440 -8.515413 -21.035076 11.032059 0.000000 0.000000 0.000000 -3.219871 1.112934 37.956941 7.901806 -1.630666 -24.032272 4.666037 3.011875 21.698956 -1.720887 2.618648 -37.750613 0.000000 0.000000 0.000000 -36.362052 -6.451166 3.406538 -43.648325 -19.126653 -0.670189 -9.688270 -37.263821 5.245883 0.000000 0.000000 0.000000 15.236221 18.812137 7.506441 43.801099 17.086101 0.226433 6.949891 32.799356 2.933612 0.000000 0.000000 0.000000 
-0.069066 0.922330 -0.071055 -4.121411 -12.054784 -7.633260 14.760172 0.578297 4.771363 -7.119476 1.210712 5.197335 9.516871 19.544736 7.145065 0.000000 0.000000 0.000000 -4.102734 0.007298 2.242522 7.552136 -0.631636 2.066710 -8.652140 -21.239159 10.939579 0.000000 0.000000 0.000000 -2.962321 0.943714 38.021134 7.675267 -1.580952 -23.923254 4.764576 2.943569 21.661109 -2.291150 2.900161 -37.494095 0.000000 0.000000 0.000000 -36.137717 -6.833143 3.565620 -43.778899 -19.295603 -0.559139 -10.297274 -37.685931 5.503746 0.000000 0.000000 0.000000 15.409493 19.173575 7.751327 44.061100 17.962445 0.544009 5.724741 32.661076 2.597806 0.000000 0.000000 0.000000 
-0.074582 0.922589 -0.071783 -3.999350 -11.169346 -7.599678 14.756097 0.531035 4.539424 -6.956126 1.152570 5.078158 9.311589 19.175553 7.268795 0.000000 0.000000 0.000000 -3.674322 -0.043469 2.614115 7.354597 -0.625754 1.691888 -9.237238 -22.205446 11.370392 0.000000 0.000000 0.000000 -2.716201 0.736788 37.913406 7.890683 -1.653893 -23.630279 4.440896 2.872647 21.551518 -2.636286 3.098167 -37.157605 0.000000 0.000000 0.000000 -35.870670 -7.123382 3.585132 -43.937627 -19.602939 -0.365464 -10.606499 -38.229982 5.674274 0.000000 0.000000 0.000000 15.926481 19.839952 8.214596 43.913937 19.011310 0.920521 3.633276 32.192179 2.005667 0.000000 0.000000 0.000000 
-0.079605 0.923000 -0.072390 -3.847203 -10.793666 -7.508603 14.623337 0.509283 4.339131 -6.875914 1.130357 5.106306 9.278509 19.111843 7.363308 0.000000 0.000000 0.000000 -3.599414 -0.045626 2.520421 7.323196 -0.638936 2.166175 -9.331282 -22.340377 11.109609 0.000000 0.000000 0.000000 -2.509723 0.610945 37.724111 7.897110 -1.676964 -23.381762 4.496718 3.072476 21.483187 -2.984051 3.307898 -37.148790 0.000000 0.000000 0.000000 -35.939041 -7.676765 3.815148 -44.329319 -19.684096 -0.255456 -10.648799 -38.603855 5.731243 0.000000 0.000000 0.000000 15.949789 20.451572 8.601911 43.997702 19.955807 1.264941 1.564837 31.431311 1.424747 0.000000 0.000000 0.000000 
-0.084072 0.923217 -0.072705 -3.686678 -10.272007 -7.591777 14.365563 0.484230 4.146001 -6.508359 1.058456 5.334771 9.034668 18.690407 7.322177 0.000000 0.000000 0.000000 -3.543829 -0.069468 2.789543 7.215589 -0.640388 2.193598 -9.604725 -22.786111 11.278621 0.000000 0.000000 0.000000 -2.386224 0.482699 37.325986 8.024288 -1.735877 -23.106833 4.308185 3.327470 21.411934 -3.556890 3.640451 -37.062128 0.000000 0.000000 0.000000 -36.138935 -7.896841 3.729844 -44.505233 -19.537929 -0.217783 -10.932152 -38.442184 5.764217 0.000000 0.000000 0.000000 16.463249 20.949952 9.026096 43.860992 20.626593 1.491898 -0.562570 30.638048 0.861093 0.000000 0.000000 0.000000 
